<svg xmlns="http://www.w3.org/2000/svg" viewBox="0 0 512 512" width="100%" height="100%" preserveAspectRatio="xMidYMid meet" style="overflow:hidden">
  <svg width="512" height="512">
    <svg width="512" height="512">
      <ellipse stroke-linecap="round" stroke-linejoin="round" cx="256" cy="256" rx="0" ry="0" fill="rgb(50,80,176)" stroke-width="0" stroke="rgb(29,40,72)"/>
    </svg>
    <svg width="512" height="512">
      <g transform="matrix(-.70711,-.70711,.70711,-.70711,256,618.04)">
        <svg width="512" height="512">
          <path fill="#fffa48" stroke-linecap="round" stroke-linejoin="round" stroke="#ff5704" stroke-width="6" d="M256,256L256,256L256,256L256,256L256,256L256,256L256,256L256,256L256,256L256,256L256,256Z"/>
        </svg>
      </g>
      <g transform="matrix(0,-1,1,0,0,512)">
        <svg width="512" height="512">
          <path fill="#fffa48" stroke-linecap="round" stroke-linejoin="round" stroke="#ff5704" stroke-width="6" d="M256,256L256,256L256,256L256,256L256,256L256,256L256,256L256,256L256,256L256,256L256,256Z"/>
        </svg>
      </g>
      <g transform="matrix(.70711,-.70711,.70711,.70711,-106.04,256)">
        <svg width="512" height="512">
          <path fill="#fffa48" stroke-linecap="round" stroke-linejoin="round" stroke="#ff5704" stroke-width="6" d="M256,256L256,256L256,256L256,256L256,256L256,256L256,256L256,256L256,256L256,256L256,256Z"/>
        </svg>
      </g>
      <g transform="matrix(-1,0,0,-1,512,512)">
        <svg width="512" height="512">
          <path fill="#fffa48" stroke-linecap="round" stroke-linejoin="round" stroke="#ff5704" stroke-width="6" d="M256,256L256,256L256,256L256,256L256,256L256,256L256,256L256,256L256,256L256,256L256,256Z"/>
        </svg>
      </g>
      <g transform="matrix(-.70711,.70711,-.70711,-.70711,618.04,256)">
        <svg width="512" height="512">
          <path fill="#fffa48" stroke-linecap="round" stroke-linejoin="round" stroke="#ff5704" stroke-width="6" d="M256,256L256,256L256,256L256,256L256,256L256,256L256,256L256,256L256,256L256,256L256,256Z"/>
        </svg>
      </g>
      <g transform="matrix(0,1,-1,0,512,0)">
        <svg width="512" height="512">
          <path fill="#fffa48" stroke-linecap="round" stroke-linejoin="round" stroke="#ff5704" stroke-width="6" d="M256,256L256,256L256,256L256,256L256,256L256,256L256,256L256,256L256,256L256,256L256,256Z"/>
        </svg>
      </g>
      <g transform="matrix(.70711,.70711,-.70711,.70711,256,-106.04)">
        <svg width="512" height="512">
          <path fill="#fffa48" stroke-linecap="round" stroke-linejoin="round" stroke="#ff5704" stroke-width="6" d="M256,256L256,256L256,256L256,256L256,256L256,256L256,256L256,256L256,256L256,256L256,256Z"/>
        </svg>
      </g>
      <svg width="512" height="512">
        <path fill="#fffa48" stroke-linecap="round" stroke-linejoin="round" stroke="#ff5704" stroke-width="6" d="M256,256L256,256L256,256L256,256L256,256L256,256L256,256L256,256L256,256L256,256L256,256Z"/>
      </svg>
    </svg>
  </svg>
</svg>
